<?xml version="1.0" standalone="no"?>
<!DOCTYPE svg PUBLIC "-//W3C//DTD SVG 20010904//EN"
 "http://www.w3.org/TR/2001/REC-SVG-20010904/DTD/svg10.dtd">
<svg version="1.0" xmlns="http://www.w3.org/2000/svg"
 width="128.000000pt" height="128.000000pt" viewBox="0 0 128.000000 128.000000"
 preserveAspectRatio="xMidYMid meet">
<metadata>
Created by potrace 1.14, written by Peter Selinger 2001-2017
</metadata>
<g transform="translate(0.000000,128.000000) scale(0.100000,-0.100000)"
fill="#000000" stroke="none">
<path d="M370 1091 c-244 -133 -255 -140 -254 -168 1 -15 10 -143 19 -284 l18
-257 248 -166 248 -165 113 81 c62 44 160 115 218 156 153 109 147 101 149
182 1 38 4 77 5 87 4 22 19 278 20 352 l1 54 -85 44 c-238 123 -436 223 -440
223 -3 -1 -120 -63 -260 -139z"/>
</g>
</svg>
